<svg xmlns="http://www.w3.org/2000/svg" xmlns:xlink="http://www.w3.org/1999/xlink" width="697" height="896" viewBox="0 0 697 896"><defs><clipPath id="b"><rect width="697" height="896"/></clipPath></defs><g id="a" clip-path="url(#b)"><rect width="697" height="896" fill="#fff"/><g transform="translate(150.96 251)"><path d="M299.68,358.05a301.94,301.94,0,0,0-177.86,57.6,27.29,27.29,0,0,0-8.55,34.21,207.62,207.62,0,0,0,96.19,94.78,3.35,3.35,0,0,0,3.46-.36,145.77,145.77,0,0,1,172.55-.71,3.58,3.58,0,0,0,3.69.34,207.49,207.49,0,0,0,95.34-95.44,27.26,27.26,0,0,0-8.78-34.12,301.89,301.89,0,0,0-176.04-56.3Z" transform="translate(-101.15 -260.525)" fill="#651fff"/><ellipse cx="53.3" cy="55.3" rx="53.3" ry="55.3" transform="translate(145.9 138.907)" fill="#f1f2f2" stroke="#707070" stroke-width="1"/><path d="M253.07,523c1-.23,1.93-.46,2.9-.67a146.5,146.5,0,0,1,88.91.48c28.9-20.76,43.2-60.55,24.54-101a68.21,68.21,0,0,0-32.57-33.16c-59-28.08-117,14.21-117,70A78.86,78.86,0,0,0,253.07,523Zm19.22-106.07c46.53-25.28,93.56,21.76,68.28,68.28a37.78,37.78,0,0,1-15.16,15.17c-46.53,25.28-93.56-21.76-68.28-68.29a37.82,37.82,0,0,1,15.16-15.17Z" transform="translate(-101.15 -261.081)" fill="#311b92"/><path d="M108.89,279a17.63,17.63,0,0,1,17.63-17.63h69.62V255.8H126.19a23,23,0,0,0-23,23v69.84h5.74Z" transform="translate(-101.15 -253.8)" fill="#311b92" stroke="#311b92" stroke-miterlimit="10" stroke-width="4"/><path d="M471.5,255.8h-70v5.61h69.65A17.63,17.63,0,0,1,488.82,279v69.64h5.72v-69.8A23,23,0,0,0,471.5,255.8Z" transform="translate(-101.15 -253.8)" fill="#311b92" stroke="#311b92" stroke-miterlimit="10" stroke-width="4"/><path d="M108.89,638.24a17.63,17.63,0,0,0,17.63,17.64h69.62v5.61H126.19a23,23,0,0,1-23-23V568.6h5.74Z" transform="translate(-101.15 -270.165)" fill="#311b92" stroke="#311b92" stroke-miterlimit="10" stroke-width="4"/><path d="M471.5,661.49h-70v-5.61h69.65a17.63,17.63,0,0,0,17.63-17.64V568.6h5.72v69.84a23,23,0,0,1-23,23.05Z" transform="translate(-101.15 -270.165)" fill="#311b92" stroke="#311b92" stroke-miterlimit="10" stroke-width="4"/></g></g></svg>